<svg width="593" height="594" viewBox="0 0 593 594" fill="none" xmlns="http://www.w3.org/2000/svg">
<g clip-path="url(#clip0_196_764)">
<path d="M35.4801 298.99C28.9258 290.354 24.1657 280.494 21.4801 269.99C4.8101 306.32 0.890164 343.75 10.4202 378.17C14.1602 390.02 19.6601 405.67 24.2601 417.17C35.7701 441.71 37.8401 446.17 51.5901 467.05L60.0502 478.74C23.5102 430.42 15.7501 364.99 35.4601 298.97" fill="#262626"/>
<path d="M75.8901 324.5C66.1373 322.287 56.9457 318.086 48.8901 312.16C31.1001 399.4 52.4601 483.63 113.34 532.34C115.693 534.22 118.073 536.027 120.48 537.76C144.85 554.1 147.4 555.81 166.7 565.35C191.96 576.24 196.51 578.2 220.87 584.83L232.93 587.69C207.93 582.98 183.75 572.05 161.73 554.43C100.85 505.72 70.9802 417.61 75.9202 324.5" fill="#262626"/>
<path d="M131.17 321.43C119.773 324.945 107.917 326.751 95.9902 326.79C100.6 421 136.79 509.79 197.68 558.54C226.88 581.91 258.39 593.34 289.57 593.97C301.07 593.69 316.4 592.97 327.86 591.91C352.86 588.07 356.08 587.58 375.48 582.26C341.31 591.59 301.22 581.4 260.66 548.95C199.78 500.23 152.52 413.09 131.17 321.43Z" fill="#262626"/>
<path d="M192.92 288.42C188.1 292.173 183.146 295.723 178.06 299.07C170.633 303.959 162.889 308.349 154.88 312.21C187.5 399.47 242.22 483.71 303.11 532.43C347.46 567.92 387.29 578.32 416.89 566.7L417.08 566.6C438.08 556.1 439.76 555.24 453.31 546.74C460.19 542.11 469.31 535.87 475.98 530.91C459.05 543.62 422.36 530.78 371.21 489.85C310.32 441.13 243.64 364.38 192.92 288.42Z" fill="#262626"/>
<path d="M244.51 233.79C235.708 246.401 225.799 258.201 214.9 269.05C276.07 335.78 349.67 406.44 410.56 455.16C461.75 496.16 493.56 513.26 502.71 507.35C510.335 499.76 517.565 491.783 524.37 483.45C529.39 477.297 534.153 470.993 538.66 464.54C539.99 457.99 514.76 433.01 463.56 392.04C402.68 343.33 319.76 283.76 244.56 233.79" fill="#262626"/>
<path d="M276.5 169.62C272.127 183.425 266.434 196.777 259.5 209.49C341.89 247.9 429.5 299.82 490.41 348.54C541.61 389.54 563.5 419.89 556.86 435.03C558.1 432.75 559.31 430.45 560.48 428.15C563.78 420.98 568.1 411.38 571.07 404.07C574.07 395.7 578.01 384.47 580.65 375.95C585.43 348.17 566.01 313.34 520.81 277.17C459.93 228.45 366.94 189.07 276.48 169.62" fill="#262626"/>
<path d="M283.63 106.28C285.024 118.981 284.644 131.814 282.5 144.41C375.82 151.86 470.7 183.31 531.58 232.03C573.19 265.32 592.06 301.18 589.75 333.93L590.75 326.07C592.5 302.25 592.86 297.29 591.81 274.07C591.04 266.36 590.14 256.07 589.04 248.38C582.74 217.74 564.47 188.51 533.58 163.79C472.69 115.07 377.46 95.62 283.58 106.3" fill="#262626"/>
<path d="M262.74 57.45C269.844 65.2424 275.264 74.4171 278.66 84.3999C370.15 63.3099 463.82 75.88 524.66 124.6C546.58 142.13 562.34 162.83 572.16 185.43C568.24 176.43 563 164.51 558.59 155.78C544.5 131.78 541.96 127.49 525.67 107.1C519.74 100.22 511.87 90.99 505.56 84.45C502.547 81.6566 499.414 78.96 496.16 76.36C435.28 27.64 346.62 23.55 262.7 57.45" fill="#262626"/>
<path d="M219.98 35.4999C230.009 36.9544 239.645 40.4022 248.32 45.6399C315.44 11.22 387.9 7.05996 445.71 38.74C436.5 33.94 424.18 27.6099 414.71 23.3699C389.19 13.8099 384.59 12.0899 360.2 6.69995C351.1 5.00995 338.95 2.78994 329.77 1.60994C292.52 -0.390063 254.54 11.4099 219.99 35.4999" fill="#262626"/>
<path d="M163.37 42.3399C174.905 38.1021 186.981 35.5132 199.24 34.6499C222.09 15.6499 247.65 4.11994 274.16 0.939941L254.91 3.22995C230.76 7.77995 227.05 8.47995 206.13 15.11L195.13 18.9399C182.939 24.3138 172.08 32.3024 163.32 42.3399" fill="#262626"/>
<path d="M101.85 78.8999C108.969 72.876 116.446 67.2892 124.24 62.17C129.32 58.8366 134.39 55.8066 139.45 53.08C144.074 46.351 150.073 40.6794 157.05 36.4399C150.33 40.4399 141.39 45.6799 134.86 49.9099C128.36 54.5799 119.74 60.9099 113.49 65.9099C110.663 68.1099 107.877 70.3733 105.13 72.7C103.654 74.5445 102.547 76.6564 101.87 78.92" fill="#262626"/>
<path d="M52.4802 135.33C60.782 122.455 70.209 110.341 80.6503 99.13C80.3448 98.018 80.4331 96.8344 80.9003 95.78C76.5069 100.487 72.2769 105.333 68.2102 110.32C61.5825 118.436 55.3906 126.898 49.6603 135.67C49.3503 136.15 49.0402 136.67 48.7402 137.11C49.7741 136.146 51.0801 135.524 52.4802 135.33Z" fill="#262626"/>
<path d="M23.3702 199.98C27.0668 186.175 32.1354 172.775 38.5002 159.98C36.109 161.498 34.0369 163.468 32.4003 165.78C29.6303 171.49 25.9103 179.1 23.4003 184.92C15.8503 204.35 15.0602 206.38 11.0002 220.56L9.93018 224.49C11.9302 218.95 14.5503 211.32 18.1703 206.67C19.7303 204.67 22.2603 202.26 23.3903 199.98" fill="#262626"/>
<path d="M19.7903 262.46C17.5738 250.1 17.193 237.481 18.6602 225.01C9.37025 238.24 3.75015 252.39 1.93015 267.01C-0.0698539 291.85 -0.239844 293.87 0.190156 310.01C1.99016 336.66 2.10026 338.26 4.92026 353.95C-0.379742 324.13 4.75025 292.77 19.7903 262.53" fill="#262626"/>
</g>
<defs>
<clipPath id="clip0_196_764">
<rect width="592.48" height="593.98" fill="white"/>
</clipPath>
</defs>
</svg>
