<svg width="555" height="556" viewBox="0 0 555 556" fill="none" xmlns="http://www.w3.org/2000/svg">
<g clip-path="url(#clip0_298_266)">
<path d="M33.5549 279.86C27.4269 271.786 22.9764 262.567 20.4654 252.746C4.87967 286.713 1.21469 321.709 10.1249 353.89C13.6216 364.969 18.7638 379.601 23.0647 390.353C33.826 413.297 35.7614 417.467 48.6171 436.989L56.5269 447.919C22.3635 402.742 15.1081 341.567 33.5362 279.841" fill="#262626"/>
<path d="M71.3362 303.711C62.2176 301.642 53.6239 297.714 46.0923 292.173C29.4593 373.739 49.43 452.491 106.35 498.033C108.551 499.79 110.776 501.48 113.026 503.1C135.811 518.377 138.195 519.976 156.24 528.896C179.857 539.077 184.111 540.91 206.887 547.109L218.162 549.783C194.788 545.379 172.181 535.16 151.593 518.686C94.6727 473.144 66.7455 390.765 71.3642 303.711" fill="#262626"/>
<path d="M123.021 300.84C112.365 304.127 101.28 305.815 90.1289 305.852C94.4391 393.934 128.275 476.949 185.205 522.529C212.506 544.379 241.966 555.065 271.118 555.654C281.87 555.392 296.203 554.719 306.918 553.728C330.292 550.138 333.302 549.68 351.441 544.706C319.493 553.429 282.011 543.902 244.089 513.562C187.168 468.011 142.982 386.539 123.021 300.84Z" fill="#262626"/>
<path d="M180.754 269.977C176.248 273.487 171.617 276.806 166.861 279.935C159.917 284.506 152.677 288.61 145.188 292.22C175.687 373.805 226.848 452.566 283.777 498.117C325.243 531.299 362.482 541.022 390.157 530.158L390.335 530.064C409.969 520.247 411.54 519.443 424.208 511.496C430.641 507.167 439.168 501.333 445.404 496.696C429.575 508.579 395.271 496.574 347.448 458.306C290.519 412.755 228.176 340.997 180.754 269.977Z" fill="#262626"/>
<path d="M228.99 218.901C220.761 230.691 211.496 241.724 201.306 251.867C258.497 314.257 327.31 380.321 384.24 425.873C432.1 464.206 461.841 480.194 470.396 474.668C477.526 467.572 484.285 460.114 490.647 452.323C495.341 446.569 499.795 440.676 504.008 434.642C505.252 428.519 481.662 405.163 433.793 366.858C376.872 321.316 299.345 265.621 229.036 218.901" fill="#262626"/>
<path d="M258.898 158.904C254.809 171.811 249.487 184.295 243.004 196.181C320.035 232.093 401.947 280.636 458.895 326.187C506.765 364.52 527.232 392.896 521.023 407.052C522.183 404.92 523.314 402.77 524.408 400.619C527.493 393.916 531.532 384.94 534.309 378.105C537.114 370.28 540.798 359.78 543.266 351.814C547.735 325.841 529.578 293.277 487.318 259.459C430.398 213.908 343.456 177.089 258.879 158.904" fill="#262626"/>
<path d="M265.564 99.6838C266.868 111.559 266.512 123.557 264.508 135.334C351.758 142.299 440.467 171.704 497.387 217.255C536.291 248.38 553.934 281.907 551.774 312.527L552.709 305.179C554.345 282.908 554.682 278.27 553.7 256.561C552.98 249.352 552.139 239.731 551.11 232.542C545.22 203.894 528.138 176.566 499.257 153.453C442.328 107.902 353.292 89.7172 265.518 99.7025" fill="#262626"/>
<path d="M246.034 54.0298C252.676 61.3154 257.743 69.8933 260.918 79.2269C346.458 59.5086 434.035 71.2611 490.918 116.812C511.412 133.202 526.147 152.556 535.329 173.686C531.664 165.271 526.764 154.127 522.641 145.964C509.468 123.525 507.093 119.514 491.862 100.451C486.318 94.018 478.96 85.3883 473.06 79.2737C470.243 76.662 467.314 74.1408 464.272 71.7099C407.351 26.1586 324.458 22.3347 245.996 54.0298" fill="#262626"/>
<path d="M206.055 33.5074C215.431 34.8673 224.44 38.0908 232.551 42.9879C295.306 10.8066 363.053 6.9172 417.103 36.5367C408.492 32.0489 396.973 26.1306 388.119 22.1664C364.259 13.2282 359.958 11.62 337.155 6.58061C328.647 5.00052 317.287 2.9249 308.704 1.82165C273.877 -0.0482674 238.367 10.9843 206.064 33.5074" fill="#262626"/>
<path d="M153.127 39.9026C163.912 35.9404 175.202 33.5199 186.664 32.7128C208.028 14.9486 231.925 4.16848 256.711 1.19531L238.713 3.33638C216.134 7.59044 212.665 8.24492 193.106 14.4437L182.821 18.0246C171.424 23.0489 161.27 30.518 153.08 39.9026" fill="#262626"/>
<path d="M95.6074 74.0847C102.263 68.4526 109.254 63.2291 116.541 58.4428C121.291 55.3263 126.031 52.4934 130.762 49.944C135.085 43.6527 140.694 38.35 147.217 34.3863C140.934 38.1261 132.576 43.0253 126.47 46.9802C120.393 51.3465 112.334 57.2647 106.49 61.9395C103.848 63.9965 101.242 66.1126 98.6741 68.2879C97.2938 70.0125 96.2589 71.987 95.6261 74.1034" fill="#262626"/>
<path d="M49.4489 126.844C57.2107 114.806 66.0245 103.48 75.7867 92.9989C75.5011 91.9592 75.5837 90.8527 76.0205 89.8668C71.9129 94.2674 67.9579 98.7988 64.1558 103.461C57.9592 111.049 52.1699 118.961 46.8124 127.162C46.5225 127.611 46.2326 128.097 45.9521 128.509C46.9188 127.607 48.1398 127.026 49.4489 126.844Z" fill="#262626"/>
<path d="M22.2319 187.29C25.6881 174.383 30.427 161.854 36.3779 149.891C34.1421 151.311 32.2048 153.153 30.6746 155.314C28.0848 160.653 24.6068 167.768 22.26 173.209C15.2011 191.375 14.4624 193.273 10.6665 206.531L9.66602 210.205C11.5359 205.026 13.9856 197.892 17.3702 193.544C18.8287 191.675 21.1941 189.421 22.2506 187.29" fill="#262626"/>
<path d="M18.8847 245.706C16.8124 234.15 16.4564 222.352 17.8282 210.692C9.14245 223.061 3.88788 236.291 2.18625 249.96C0.316335 273.184 0.157401 275.073 0.559433 290.163C2.24236 315.08 2.3453 316.576 4.98189 331.245C0.0266024 303.365 4.82294 274.044 18.8847 245.771" fill="#262626"/>
</g>
<defs>
<clipPath id="clip0_298_266">
<rect width="553.945" height="555.347" fill="white" transform="translate(0.381836 0.316406)"/>
</clipPath>
</defs>
</svg>
