<svg width="249" height="248" viewBox="0 0 249 248" fill="none" xmlns="http://www.w3.org/2000/svg">
<path opacity="0.2" d="M99.2815 34.5567L124.838 9M73.7248 175.119L175.952 72.8918M124.838 239.01L150.395 213.454M182.341 213.454C190.813 213.454 198.939 210.088 204.93 204.097C210.921 198.106 214.287 189.98 214.287 181.508C214.287 173.035 210.921 164.91 204.93 158.919C198.939 152.928 190.813 149.562 182.341 149.562C173.868 149.562 165.743 152.928 159.752 158.919C153.761 164.91 150.395 173.035 150.395 181.508C150.395 189.98 153.761 198.106 159.752 204.097C165.743 210.088 173.868 213.454 182.341 213.454ZM67.3356 98.4485C75.8082 98.4485 83.9338 95.0828 89.9248 89.0918C95.9158 83.1007 99.2815 74.9752 99.2815 66.5026C99.2815 58.03 95.9158 49.9045 89.9248 43.9134C83.9338 37.9224 75.8082 34.5567 67.3356 34.5567C58.863 34.5567 50.7375 37.9224 44.7465 43.9134C38.7554 49.9045 35.3897 58.03 35.3897 66.5026C35.3897 74.9752 38.7554 83.1007 44.7465 89.0918C50.7375 95.0828 58.863 98.4485 67.3356 98.4485ZM41.7789 239.01C50.2515 239.01 58.377 235.645 64.3681 229.654C70.3591 223.663 73.7248 215.537 73.7248 207.065C73.7248 198.592 70.3591 190.466 64.3681 184.475C58.377 178.484 50.2515 175.119 41.7789 175.119C33.3063 175.119 25.1808 178.484 19.1897 184.475C13.1987 190.466 9.83301 198.592 9.83301 207.065C9.83301 215.537 13.1987 223.663 19.1897 229.654C25.1808 235.645 33.3063 239.01 41.7789 239.01ZM207.898 72.8918C216.37 72.8918 224.496 69.5261 230.487 63.535C236.478 57.544 239.843 49.4185 239.843 40.9459C239.843 32.4733 236.478 24.3478 230.487 18.3567C224.496 12.3657 216.37 9 207.898 9C199.425 9 191.299 12.3657 185.308 18.3567C179.317 24.3478 175.952 32.4733 175.952 40.9459C175.952 49.4185 179.317 57.544 185.308 63.535C191.299 69.5261 199.425 72.8918 207.898 72.8918Z" stroke="#E9E9E9" stroke-width="17.6931" stroke-linecap="round" stroke-linejoin="round"/>
</svg>
